# xmcd
#
# Track frame offsets: 
#        150
#        16170
#        29479
#        43540
#        63132
#        75586
#        98450
#        115235
#        127777
#        147873
#        160705
#        178760
#        198285
#        208258
#
# Disc length: 2936 seconds
#
# Revision: 0
# Processed by: cddbd v1.5.2PL0 Copyright (c) Steve Scherf et al.
# Submitted via: ExactAudioCopyFreeDBPlugin 1.0
#
DISCID=ac0b760e
DTITLE=The Silvertones - foolin' around
DYEAR=1900
DGENRE=Blues
TTITLE0=Ain't That Fine
TTITLE1=Baby's Back In Town
TTITLE2=Feeling Lonely
TTITLE3=Long Hair Slim
TTITLE4=What's A Matter Baby
TTITLE5=Driving All Night
TTITLE6=Workin'
TTITLE7=She's The One
TTITLE8=I Love My Baby
TTITLE9=Looking For A Woman
TTITLE10=Mean And Evil
TTITLE11=I'm Gonna Leave You
TTITLE12=You Better Hold On
TTITLE13=High And Full Of Life
EXTD=
EXTT0=
EXTT1=
EXTT2=
EXTT3=
EXTT4=
EXTT5=
EXTT6=
EXTT7=
EXTT8=
EXTT9=
EXTT10=
EXTT11=
EXTT12=
EXTT13=
PLAYORDER=
